<?xml version="1.0" ?><!-- Uploaded to: SVG Repo, www.svgrepo.com, Generator: SVG Repo Mixer Tools -->
<svg width="800px" height="800px" viewBox="0 0 2050 2050" data-name="Layer 2" id="Layer_2" xmlns="http://www.w3.org/2000/svg"><defs><style>.cls-1{fill:#de3226;}.cls-2{fill:#f4c23f;}.cls-3{fill:#67baeb;}.cls-4{fill:#b11a31;}.cls-5{fill:#f4a93f;}.cls-6{fill:#46a1f8;}.cls-7{fill:#4d4c78;}.cls-8{fill:#323150;}.cls-9{fill:#f44533;}.cls-10{fill:#83d0fb;}.cls-11{fill:#fad564;}</style></defs><title/><polygon class="cls-1" points="951.3 690.3 565.9 690.3 373.3 1024 565.9 1357.7 951.3 1357.7 1143.9 1024 951.3 690.3"/><polygon class="cls-2" points="1529.1 1025.2 1143.7 1025.2 951.1 1358.9 1143.7 1692.6 1529.1 1692.6 1721.8 1358.9 1529.1 1025.2"/><polygon class="cls-3" points="1529.1 1025.2 1143.7 1025.2 951.1 691.5 1143.7 357.7 1529.1 357.7 1721.8 691.5 1529.1 1025.2"/><polygon class="cls-4" points="647.8 690.3 565.9 690.3 373.3 1024 565.9 1357.7 647.8 1357.7 455.2 1024 647.8 690.3"/><polygon class="cls-5" points="1225.6 1025.2 1143.7 1025.2 951.1 1358.9 1143.7 1692.6 1225.6 1692.6 1033 1358.9 1225.6 1025.2"/><polygon class="cls-6" points="1225.6 357.7 1143.7 357.7 951.1 691.5 1143.7 1025.2 1225.6 1025.2 1033 691.5 1225.6 357.7"/><path class="cls-7" d="M951.3,1377.7H565.9a20,20,0,0,1-17.3-10L355.9,1034a20.4,20.4,0,0,1,0-20L548.6,680.3a20,20,0,0,1,17.3-10H951.3a20,20,0,0,1,17.3,10L1161.3,1014a20.4,20.4,0,0,1,0,20L968.6,1367.7A20,20,0,0,1,951.3,1377.7Zm-373.8-40H939.7L1120.8,1024,939.7,710.3H577.5L396.3,1024Z"/><path class="cls-7" d="M1529.1,1712.6H1143.7a20,20,0,0,1-17.3-10L933.8,1368.9a19.9,19.9,0,0,1,0-20l192.6-333.7a20,20,0,0,1,17.3-10h385.4a20,20,0,0,1,17.3,10l192.7,333.7a19.9,19.9,0,0,1,0,20l-192.7,333.7A20,20,0,0,1,1529.1,1712.6Zm-373.8-40h362.2l181.2-313.7-181.2-313.7H1155.3L974.2,1358.9Z"/><path class="cls-7" d="M1529.1,1045.2H1143.7a20,20,0,0,1-17.3-10L933.8,701.5a19.9,19.9,0,0,1,0-20l192.6-333.8a20.2,20.2,0,0,1,17.3-10h385.4a20.2,20.2,0,0,1,17.3,10l192.7,333.8a19.9,19.9,0,0,1,0,20l-192.7,333.7A20,20,0,0,1,1529.1,1045.2Zm-373.8-40h362.2l181.2-313.7L1517.5,377.7H1155.3L974.2,691.5Z"/><path class="cls-7" d="M373.3,1044H173.7a20,20,0,0,1,0-40H373.3a20,20,0,0,1,0,40Z"/><path class="cls-7" d="M1529.1,377.8a19.7,19.7,0,0,1-9.6-2.5,19.9,19.9,0,0,1-8-27.1l122.6-225.8a20,20,0,1,1,35.2,19.1L1546.7,367.3A20.1,20.1,0,0,1,1529.1,377.8Z"/><path class="cls-7" d="M1627,1881.1a20.3,20.3,0,0,1-17.4-10l-97.8-168.4a20,20,0,1,1,34.6-20.1l97.8,168.4a19.9,19.9,0,0,1-7.2,27.3A19.4,19.4,0,0,1,1627,1881.1Z"/><path class="cls-7" d="M1115.1,1799a20.2,20.2,0,0,1-19-26.3l28.7-86.4a20,20,0,1,1,37.9,12.6l-28.6,86.4A20,20,0,0,1,1115.1,1799Z"/><path class="cls-7" d="M1143.8,377.7a19.8,19.8,0,0,1-15.3-7.1L1062.1,292a20,20,0,0,1,30.6-25.8l66.3,78.7a19.8,19.8,0,0,1-2.4,28.1A19.5,19.5,0,0,1,1143.8,377.7Z"/><path class="cls-7" d="M565.9,710.3a20,20,0,0,1-15.7-7.6l-58.5-74a20,20,0,0,1,31.4-24.8l58.5,74a19.9,19.9,0,0,1-3.3,28.1A19.7,19.7,0,0,1,565.9,710.3Z"/><path class="cls-7" d="M1721.8,711.5a20,20,0,0,1-.4-40l70.2-1.2a20,20,0,0,1,.7,40l-70.2,1.2Z"/><path class="cls-7" d="M1721.7,1378.9a20,20,0,0,1-3.1-39.8l78.2-12.3a20,20,0,1,1,6.2,39.5l-78.1,12.4Z"/><path class="cls-7" d="M547,1428.8a18.7,18.7,0,0,1-6.9-1.3,19.9,19.9,0,0,1-11.8-25.7l18.9-51a20,20,0,0,1,37.5,13.9l-18.9,51A20.1,20.1,0,0,1,547,1428.8Z"/><path class="cls-8" d="M652.5,1104.3a14.8,14.8,0,0,1-14.8-14.8v-131a14.8,14.8,0,0,1,29.6,0v131A14.8,14.8,0,0,1,652.5,1104.3Z"/><path class="cls-8" d="M747,1104.3a14.8,14.8,0,0,1-14.8-14.8v-131a14.8,14.8,0,0,1,29.6,0v131A14.8,14.8,0,0,1,747,1104.3Z"/><path class="cls-8" d="M864.7,1104.3H796.8a14.8,14.8,0,0,1-14.8-14.8v-131a14.8,14.8,0,0,1,14.8-14.8h67.9a14.8,14.8,0,0,1,0,29.6H811.6v101.4h53.1a14.8,14.8,0,0,1,0,29.6Z"/><path class="cls-8" d="M747,1039.5H652.5a14.8,14.8,0,1,1,0-29.6H747a14.8,14.8,0,0,1,0,29.6Z"/><path class="cls-8" d="M840.4,1039.5H796.8a14.8,14.8,0,1,1,0-29.6h43.6a14.8,14.8,0,1,1,0,29.6Z"/><path class="cls-8" d="M1356.3,771.8a14.8,14.8,0,0,1-14.8-14.8V626a14.8,14.8,0,1,1,29.5,0V757A14.8,14.8,0,0,1,1356.3,771.8Z"/><path class="cls-8" d="M1450.8,771.8A14.8,14.8,0,0,1,1436,757V626a14.8,14.8,0,1,1,29.5,0V757A14.8,14.8,0,0,1,1450.8,771.8Z"/><path class="cls-8" d="M1450.8,707h-94.5a14.8,14.8,0,1,1,0-29.6h94.5a14.8,14.8,0,0,1,0,29.6Z"/><path class="cls-8" d="M1291.8,776a84.6,84.6,0,1,1,29.4-163.8,14.8,14.8,0,0,1-10.3,27.7,53.8,53.8,0,0,0-19.1-3.4,55,55,0,1,0,18.1,106.9,14.8,14.8,0,1,1,9.7,27.9A84.5,84.5,0,0,1,1291.8,776Z"/><path class="cls-8" d="M1226.9,1433.7a14.8,14.8,0,0,1-14.8-14.8v-131a14.8,14.8,0,1,1,29.6,0v131A14.8,14.8,0,0,1,1226.9,1433.7Z"/><path class="cls-8" d="M1321.4,1433.7a14.8,14.8,0,0,1-14.8-14.8v-131a14.8,14.8,0,1,1,29.6,0v131A14.8,14.8,0,0,1,1321.4,1433.7Z"/><path class="cls-8" d="M1321.4,1368.9h-94.5a14.8,14.8,0,1,1,0-29.6h94.5a14.8,14.8,0,0,1,0,29.6Z"/><path class="cls-8" d="M1405.2,1444.7a55.6,55.6,0,0,1-55.5-55.5v-60.6a55.5,55.5,0,0,1,111,0v60.6A55.6,55.6,0,0,1,1405.2,1444.7Zm0-142a25.9,25.9,0,0,0-25.9,25.9v60.6a26,26,0,0,0,51.9,0v-60.6A26,26,0,0,0,1405.2,1302.7Z"/><rect class="cls-9" height="266.7" rx="29.3" ry="29.3" transform="translate(-300.4 611.7) rotate(-30)" width="58.6" x="961.9" y="733.1"/><rect class="cls-9" height="139.23" rx="29.3" ry="29.3" transform="translate(1403.4 2551.3) rotate(-150)" width="58.6" x="1014.2" y="1018"/><rect class="cls-10" height="266.7" rx="29.3" ry="29.3" transform="translate(-57.8 854.3) rotate(-30)" width="58.6" x="1536" y="401.7"/><rect class="cls-10" height="216.2" rx="29.3" ry="29.3" transform="translate(2594 2276.5) rotate(-150)" width="58.6" x="1572.7" y="682.6"/><rect class="cls-11" height="266.7" rx="29.3" ry="29.3" transform="translate(-393.9 944.4) rotate(-30)" width="58.6" x="1536" y="1073.8"/><rect class="cls-11" height="168.3" rx="29.3" ry="29.3" transform="translate(2273.1 3502.9) rotate(-150)" width="58.6" x="1576.5" y="1362.8"/></svg>