<?xml version="1.0" ?><!-- Uploaded to: SVG Repo, www.svgrepo.com, Generator: SVG Repo Mixer Tools -->
<svg width="800px" height="800px" viewBox="0 0 32 32" xmlns="http://www.w3.org/2000/svg"><title/><path d="M27.83,5.22,20,15,18,8l7.35-5A16,16,0,0,0,2.41,24.46,3,3,0,0,1,4,24H18a3,3,0,0,1,0,6H8.25A16,16,0,0,0,27.83,5.22ZM20,19.3A1.7,1.7,0,0,1,18.3,21H2.7A1.7,1.7,0,0,1,1,19.3V13.7A1.7,1.7,0,0,1,2.7,12H9V6.5A1.5,1.5,0,0,1,10.5,5h5.38a1.49,1.49,0,0,1,1.44,1.07L20,15Z" style="fill: #0bf"/><circle cx="18" cy="27" r="3" style="fill: none;stroke: #000000;stroke-linecap: round;stroke-linejoin: round;stroke-width: 2px"/><circle cx="4" cy="27" r="3" style="fill: none;stroke: #000000;stroke-linecap: round;stroke-linejoin: round;stroke-width: 2px"/><line style="fill: none;stroke: #000000;stroke-linecap: round;stroke-linejoin: round;stroke-width: 2px" x1="18" x2="4.09" y1="30" y2="30"/><line style="fill: none;stroke: #000000;stroke-linecap: round;stroke-linejoin: round;stroke-width: 2px" x1="12" x2="8" y1="27" y2="27"/><line style="fill: none;stroke: #000000;stroke-linecap: round;stroke-linejoin: round;stroke-width: 2px" x1="18" x2="4.09" y1="24" y2="24"/><line style="fill: none;stroke: #000000;stroke-linecap: round;stroke-linejoin: round;stroke-width: 2px" x1="9" x2="9" y1="23" y2="22"/><line style="fill: none;stroke: #000000;stroke-linecap: round;stroke-linejoin: round;stroke-width: 2px" x1="13" x2="13" y1="23" y2="22"/><path d="M9,12H2.7A1.7,1.7,0,0,0,1,13.7v5.6A1.7,1.7,0,0,0,2.7,21H18.3A1.7,1.7,0,0,0,20,19.3V15Z" style="fill: none;stroke: #000000;stroke-linecap: round;stroke-linejoin: round;stroke-width: 2px"/><path d="M20,15,17.32,6.07A1.5,1.5,0,0,0,15.88,5H10.5A1.5,1.5,0,0,0,9,6.5v5.1" style="fill: none;stroke: #000000;stroke-linecap: round;stroke-linejoin: round;stroke-width: 2px"/><path d="M4,11V9.41a1,1,0,0,0-.29-.71L3,8" style="fill: none;stroke: #000000;stroke-linecap: round;stroke-linejoin: round;stroke-width: 2px"/><line style="fill: none;stroke: #000000;stroke-linecap: round;stroke-linejoin: round;stroke-width: 2px" x1="13" x2="13" y1="6" y2="12.6"/><path d="M20,15,28.69,4.15a1.43,1.43,0,0,0-.27-2h0a1.46,1.46,0,0,0-1.69,0L18,8" style="fill: none;stroke: #000000;stroke-linecap: round;stroke-linejoin: round;stroke-width: 2px"/><path d="M29,3.5V15a2,2,0,1,0,1.41,3.41" style="fill: none;stroke: #000000;stroke-linecap: round;stroke-linejoin: round;stroke-width: 2px"/></svg>