<?xml version="1.0" encoding="iso-8859-1"?>
<!-- Uploaded to: SVG Repo, www.svgrepo.com, Generator: SVG Repo Mixer Tools -->
<svg version="1.1" id="Layer_1" xmlns="http://www.w3.org/2000/svg" xmlns:xlink="http://www.w3.org/1999/xlink" 
	 viewBox="0 0 512 512" xml:space="preserve">
<rect x="113.485" y="403.794" style="fill:#595E62;" width="285.031" height="84.454"/>
<polygon style="fill:#AFB6BB;" points="504.082,319.34 504.082,366.845 477.691,366.845 34.309,366.845 7.918,366.845 7.918,319.34 
	361.567,319.34 456.577,319.34 "/>
<path style="fill:#595E62;" d="M348.477,60.701c13.301-19.213,35.471-31.67,60.595-31.67c40.854,0,73.897,33.042,73.897,73.897
	c0,23.014-10.451,43.494-26.92,57.006c-12.774,10.557-29.031,16.891-46.977,16.891c-17.946,0-34.204-6.334-46.977-16.891
	c-5.278-4.223-9.818-9.184-13.618-14.779c-8.445-11.929-13.301-26.497-13.301-42.227S340.031,72.63,348.477,60.701z"/>
<path style="fill:#4A4F53;" d="M401.26,145.155c-8.445-11.929-13.301-26.497-13.301-42.227s4.856-30.298,13.301-42.227
	c8.355-12.067,20.212-21.458,34.097-26.781c-8.174-3.111-17.01-4.889-26.285-4.889c-25.125,0-47.294,12.457-60.595,31.67
	c-8.445,11.929-13.301,26.497-13.301,42.227s4.856,30.298,13.301,42.227c3.8,5.595,8.34,10.557,13.618,14.779
	c12.774,10.557,29.031,16.891,46.977,16.891c9.354,0,18.209-1.795,26.392-4.937c-7.515-2.886-14.47-6.899-20.586-11.953
	C409.6,155.711,405.061,150.75,401.26,145.155z"/>
<g>
	<rect x="361.567" y="271.835" style="fill:#595E62;" width="95.01" height="47.505"/>
	<rect x="187.381" y="60.701" style="fill:#595E62;" width="42.227" height="84.454"/>
</g>
<g>
	<polygon style="fill:#7E8488;" points="477.691,366.845 477.691,488.247 398.515,488.247 398.515,403.794 113.485,403.794 
		113.485,488.247 34.309,488.247 34.309,366.845 	"/>
	<path style="fill:#7E8488;" d="M456.577,271.835h-95.01V160.99l0.528-1.056c12.774,10.557,29.031,16.891,46.977,16.891
		c17.946,0,34.204-6.334,46.977-16.891l0.528,1.056V271.835z"/>
	<path style="fill:#7E8488;" d="M335.175,102.928c0,15.729,4.856,30.298,13.301,42.227H229.608V60.701h118.868
		C340.031,72.63,335.175,87.198,335.175,102.928z"/>
</g>
<polygon style="fill:#AFB6BB;" points="187.381,23.753 187.381,182.103 29.031,182.103 29.031,139.876 102.928,139.876 
	102.928,65.979 29.031,65.979 29.031,23.753 "/>
<rect x="187.381" y="102.928" style="fill:#505559;" width="42.227" height="42.227"/>
<path style="fill:#72787B;" d="M229.608,102.928v42.227h118.868c-8.445-11.929-13.301-26.497-13.301-42.227H229.608z"/>
<polygon style="fill:#A1A8AD;" points="187.381,102.928 102.928,102.928 102.928,139.876 29.031,139.876 29.031,182.103 
	187.381,182.103 187.381,145.155 "/>
<rect x="361.567" y="271.835" style="fill:#505559;" width="47.505" height="47.505"/>
<path style="fill:#72787B;" d="M409.072,176.825c-17.946,0-34.204-6.334-46.977-16.891l-0.528,1.056v110.845h47.505V176.825z"/>
<polygon style="fill:#A0A7AB;" points="256,319.34 7.918,319.34 7.918,366.845 34.309,366.845 256,366.845 "/>
<polygon style="fill:#73797C;" points="34.309,366.845 34.309,488.247 113.485,488.247 113.485,403.794 256,403.794 256,366.845 "/>
<g>
	<rect x="137.237" y="87.093" style="fill:#FFFFFF;" width="15.835" height="63.34"/>
	<rect x="137.237" y="55.423" style="fill:#FFFFFF;" width="15.835" height="21.113"/>
	<path style="fill:#FFFFFF;" d="M409.072,147.794v-15.835c16.007,0,29.031-13.024,29.031-29.031s-13.024-29.031-29.031-29.031
		c-16.007,0-29.031,13.024-29.031,29.031h-15.835c0-24.74,20.126-44.866,44.866-44.866s44.866,20.126,44.866,44.866
		S433.812,147.794,409.072,147.794z"/>
	<rect x="287.67" y="95.01" style="fill:#FFFFFF;" width="21.113" height="15.835"/>
	<rect x="256" y="95.01" style="fill:#FFFFFF;" width="21.113" height="15.835"/>
	<rect x="398.515" y="232.247" style="fill:#FFFFFF;" width="21.113" height="15.835"/>
	<rect x="398.515" y="200.577" style="fill:#FFFFFF;" width="21.113" height="15.835"/>
</g>
<path d="M512,311.423h-47.505V163.084c16.827-15.43,26.392-37.106,26.392-60.156c0-45.112-36.702-81.814-81.814-81.814
	c-25.415,0-49.274,11.79-64.604,31.67H195.299V15.835H21.113v58.062H95.01v58.062H21.113v58.062h174.186v-36.948h149.142
	c2.782,3.644,5.861,7.003,9.209,10.045v148.306H0v63.34h26.392v121.402h459.217V374.763H512V311.423z M409.072,184.742
	c14.126,0,27.577-3.505,39.588-10.203v89.378h-79.175v-89.38C381.501,181.24,394.949,184.742,409.072,184.742z M369.485,279.753
	h79.175v31.67h-79.175V279.753z M354.986,65.209c12.251-17.696,32.469-28.26,54.086-28.26c36.382,0,65.979,29.598,65.979,65.979
	c0,19.811-8.757,38.358-24.046,50.903c-11.933,9.863-26.434,15.076-41.933,15.076s-30-5.213-41.933-15.076l-0.098-0.079
	c-4.583-3.666-8.625-8.055-12.016-13.046l-0.088-0.126c-7.749-10.946-11.845-23.966-11.845-37.653S347.189,76.221,354.986,65.209z
	 M334.779,137.237h-97.254V68.619h97.254c-4.941,10.62-7.522,22.261-7.522,34.309S329.839,126.617,334.779,137.237z
	 M179.464,174.186H36.948v-26.392h73.897V58.062H36.948V31.67h142.515V174.186z M195.299,68.619h26.392v68.619h-26.392V68.619z
	 M390.598,480.33H121.402v-68.619h269.196V480.33z M469.773,480.33h-63.34v-84.454H105.567v84.454h-63.34V374.763h427.546V480.33z
	 M496.165,358.928H15.835v-31.67h480.33V358.928z"/>
<g>
	<rect x="150.433" y="438.103" style="fill:#FFFFFF;" width="163.629" height="15.835"/>
	<rect x="335.175" y="438.103" style="fill:#FFFFFF;" width="26.392" height="15.835"/>
</g>
</svg>